PathFileType	3	(X/Y/Z)	C:\Users\koon_\Desktop\
DataRate	CameraRate	NumFrames	NumMarkers	Units	OrigDataRate	OrigDataStartFrame	OrigNumFrames
100.0	100.0	9	27	mm	100.0	1786	4762	
Frame#	Time	get:LFHD			get:RFHD			get:LBHD			get:RBHD			get:C7			get:T10			get:CLAV			get:STRN			get:RBAK			get:LSHO			get:LUPA			get:LELB			get:LFRA			get:LWRA			get:LWRB			get:LFIN			get:RSHO			get:RUPA			get:RELB			get:RFRA			get:RWRA			get:RWRB			get:RFIN			get:LASI			get:RASI			get:LPSI			get:RPSI			
		X1	Y1	Z1	X2	Y2	Z2	X3	Y3	Z3	X4	Y4	Z4	X5	Y5	Z5	X6	Y6	Z6	X7	Y7	Z7	X8	Y8	Z8	X9	Y9	Z9	X10	Y10	Z10	X11	Y11	Z11	X12	Y12	Z12	X13	Y13	Z13	X14	Y14	Z14	X15	Y15	Z15	X16	Y16	Z16	X17	Y17	Z17	X18	Y18	Z18	X19	Y19	Z19	X20	Y20	Z20	X21	Y21	Z21	X22	Y22	Z22	X23	Y23	Z23	X24	Y24	Z24	X25	Y25	Z25	X26	Y26	Z26	X27	Y27	Z27	
1786	17.85	103.12095	1558.4872	-18.215282	-38.063877	1555.1511	-23.854391	85.714996	1560.1965	-179.55389	-42.508694	1531.3434	-189.34726	20.486177	1334.5355	-206.85272	30.366779	1131.5647	-227.07867	30.818174	1285.7924	-8.3795786	45.380764	1089.934	52.511204	-55.071934	1257.7354	-227.73604	118.43094	1364.5505	-143.35645	208.2317	1399.1348	-155.43301	356.73849	1486.4989	-128.86264	254.4581	1554.9392	-192.83955	178.01878	1581.686	-210.9436	212.62042	1651.3809	-179.67365	144.80458	1662.2883	-255.73894	-104.87892	1336.6619	-116.02454	-197.58455	1130.9218	-58.523754	-215.89333	1014.1295	-118.61982	-240.45364	978.19995	-32.036766	-242.74933	824.7865	18.058975	-267.45209	815.70892	-59.144096	-306.15106	759.98389	17.684158	165.43929	890.46423	-1.6107247	-100.90543	873.13409	4.662086	68.144028	946.30475	-214.85927	-21.409208	943.74957	-213.7917
1787	17.86	102.92547	1558.4257	-17.964968	-38.236263	1554.9957	-23.661633	85.542877	1560.3416	-179.37067	-42.636837	1531.3898	-189.21576	20.311302	1334.5422	-206.94687	30.141161	1131.5509	-227.13019	30.863857	1285.8467	-8.4941378	45.438595	1089.9597	52.402542	-55.285122	1257.7573	-227.7617	118.46958	1364.4585	-143.53824	208.72124	1398.8352	-155.82176	357.88028	1484.8547	-129.94946	254.76869	1550.5223	-194.94043	177.47395	1576.9358	-213.26636	213.27354	1647.3544	-184.76831	144.73741	1655.5911	-260.60449	-104.95771	1336.674	-115.88649	-197.64282	1131.0338	-58.22187	-216.08116	1014.1871	-118.13297	-240.48573	978.27521	-31.43078	-242.77702	825.00116	18.786568	-267.64499	815.88153	-58.421539	-306.2298	760.21503	18.57386	165.45032	890.48633	-1.7306658	-100.92979	873.09479	4.7624607	68.055016	946.24194	-214.83704	-21.490993	943.737	-213.85727
1788	17.87	102.76645	1558.351	-17.789648	-38.408867	1554.8348	-23.527397	85.380554	1560.4386	-179.15935	-42.765476	1531.4128	-189.04747	20.076431	1334.4796	-206.9409	29.898031	1131.4832	-227.12215	30.855724	1285.8479	-8.525609	45.443771	1089.9384	52.317459	-55.558144	1257.7253	-227.67307	118.52156	1364.4025	-143.76988	209.26454	1398.4985	-156.22552	358.96457	1483.1722	-130.92453	255.01299	1546.0293	-196.77385	176.98663	1572.0721	-214.95598	213.8084	1643.1523	-189.55214	144.63286	1648.762	-265.07693	-105.06433	1336.7056	-115.81934	-197.73068	1131.1245	-58.001785	-216.30605	1014.2144	-117.67737	-240.5253	978.38556	-30.808697	-242.83745	825.1275	19.488792	-267.8172	815.99561	-57.726616	-306.27176	760.44513	19.354214	165.44386	890.5083	-1.8623297	-100.93122	873.12762	4.7961674	67.982552	946.25671	-215.02238	-21.622461	943.6864	-213.87859
1789	17.88	102.59616	1558.2938	-17.614733	-38.564213	1554.6943	-23.349945	85.220566	1560.5419	-179.00246	-42.897671	1531.4277	-188.88072	19.886169	1334.5023	-207.07498	29.649502	1131.4436	-227.21518	30.915779	1285.8523	-8.6282835	45.486347	1089.9651	52.192497	-55.751335	1257.7172	-227.65193	118.57897	1364.3025	-143.95468	209.86133	1398.142	-156.55617	360.09982	1481.4747	-131.8432	255.19243	1541.4532	-198.2982	176.4575	1567.1227	-216.1129	214.3017	1638.75	-194.17809	144.47672	1642.001	-269.23544	-105.14772	1336.7454	-115.78968	-197.74425	1131.1453	-57.486942	-216.49837	1014.2592	-117.26715	-240.67451	978.52643	-30.495075	-242.9053	825.29901	20.099297	-267.99863	816.03809	-56.921597	-306.33432	760.65308	20.265585	165.4313	890.5368	-1.9529278	-100.92187	873.14172	4.7715383	67.876663	946.19397	-214.9906	-21.705748	943.61871	-213.89348
1790	17.89	102.43607	1558.2325	-17.442108	-38.725498	1554.5128	-23.230099	85.098656	1560.6377	-178.76501	-43.043781	1531.4303	-188.65788	19.692564	1334.476	-207.13812	29.392477	1131.3986	-227.30173	30.928629	1285.8663	-8.6998072	45.530418	1089.9358	52.051785	-56.035439	1257.7144	-227.61453	118.59108	1364.1643	-144.16452	210.424	1397.7421	-156.88115	361.25146	1479.7355	-132.68436	255.30333	1536.8926	-199.73634	175.8531	1562.3905	-216.33733	214.90005	1634.2289	-198.59882	144.32664	1635.1367	-273.1456	-105.26532	1336.7563	-115.76234	-197.84888	1131.235	-57.512314	-216.71735	1014.302	-116.89011	-240.70891	978.6297	-29.886023	-242.94437	825.46832	20.719706	-267.80173	816.55121	-56.611172	-306.435	760.8703	21.16268	165.40646	890.53979	-2.0837433	-100.97565	873.13251	4.7512879	67.772423	946.22961	-215.18282	-21.794258	943.62982	-214.00447
1791	17.9	102.28004	1558.1674	-17.227633	-38.887009	1554.3573	-23.05134	84.968109	1560.7375	-178.62172	-43.155888	1531.4702	-188.55209	19.470896	1334.4498	-207.24773	29.122923	1131.3993	-227.48064	30.927608	1285.8542	-8.784687	45.604149	1089.9703	51.801785	-56.287323	1257.6707	-227.57437	118.61184	1364.0291	-144.37518	211.05391	1397.3698	-157.19754	362.43329	1477.8914	-133.44876	255.45999	1532.3142	-200.90901	175.41731	1557.5593	-216.92088	215.52409	1629.7184	-202.97151	143.89737	1627.076	-276.27045	-105.3709	1336.7699	-115.62918	-197.94186	1131.291	-57.393486	-216.91357	1014.3578	-116.60113	-240.7424	978.7735	-29.514677	-242.97092	825.64758	21.369064	-268.2829	816.33777	-55.688625	-306.53445	761.07391	21.8771	165.40184	890.5545	-2.2261596	-100.98703	873.16205	4.6667056	67.662811	946.15265	-215.15648	-21.921442	943.59613	-214.03868
1792	17.91	102.12825	1558.099	-17.087811	-39.040508	1554.2294	-22.880459	84.743347	1560.4657	-178.64537	-43.29623	1531.5063	-188.36276	19.267843	1334.4072	-207.31226	28.842325	1131.3584	-227.59253	30.913862	1285.8678	-8.8759079	45.614399	1089.9565	51.682465	-56.518589	1257.6952	-227.57222	118.63524	1363.9229	-144.62988	211.70927	1397.0212	-157.44475	363.66577	1475.9717	-134.12126	255.6636	1527.6938	-201.78899	175.12463	1552.818	-217.2942	216.17712	1624.934	-206.86421	143.67046	1619.9554	-279.25049	-105.49177	1336.791	-115.60186	-197.99107	1131.3561	-57.211407	-217.14497	1014.3593	-116.16328	-240.79887	978.86682	-29.0301	-242.98936	825.83704	21.894938	-268.1745	816.74005	-55.320713	-306.60495	761.24756	22.52581	165.40085	890.59216	-2.3594089	-100.98178	873.15204	4.7134261	67.565758	946.11066	-215.27841	-21.971617	943.5611	-214.08316
1793	17.92	101.97939	1558.0061	-16.934589	-39.170708	1554.0842	-22.734146	84.635567	1560.8021	-178.38747	-43.380409	1531.5889	-188.28165	19.008028	1334.3766	-207.39897	28.552315	1131.2942	-227.57523	30.934145	1285.8716	-9.055089	45.652054	1089.9556	51.511185	-56.80817	1257.6771	-227.64053	118.62035	1363.842	-144.84912	212.37514	1396.6707	-157.65054	364.9617	1473.9457	-134.66574	255.91206	1523.1794	-202.40347	175.08923	1548.1584	-217.642	216.97852	1620.1194	-210.46416	143.52304	1612.8767	-281.70428	-105.64381	1336.7988	-115.55774	-198.09898	1131.4213	-57.068653	-217.39388	1014.3687	-115.86385	-240.9003	979.01062	-28.817734	-243.06001	825.99609	22.495539	-268.37137	816.79114	-54.655891	-306.66879	761.42078	23.282005	165.38792	890.612	-2.5024724	-100.98859	873.16876	4.6772676	67.459663	946.08105	-215.36958	-22.102304	943.50269	-214.14348
1794	17.93	101.85695	1557.8774	-16.791922	-39.278164	1553.9823	-22.557178	83.823273	1560.8199	-179.18254	-43.558475	1531.6777	-188.12976	18.725197	1334.358	-207.45717	28.292145	1131.2802	-227.76294	30.935347	1285.8795	-9.1277914	45.672112	1089.9478	51.314865	-57.144356	1257.6753	-227.62492	118.64291	1363.782	-145.17474	213.07719	1396.2874	-157.83797	366.21048	1471.8278	-135.03636	256.35333	1518.715	-202.82555	175.19626	1543.5585	-217.80782	217.77612	1615.3342	-213.65297	143.77599	1605.8214	-284.0239	-105.80432	1336.7783	-115.51344	-198.16833	1131.3978	-56.811665	-217.58165	1014.381	-115.65818	-240.90746	979.04059	-28.226038	-243.11617	826.10327	22.94883	-268.59915	816.82239	-54.072113	-306.76425	761.5954	24.018192	165.33574	890.64331	-2.6175911	-101.01381	873.18518	4.61409	67.350639	946.04047	-215.43565	-22.206743	943.45447	-214.25316
